<svg xmlns="http://www.w3.org/2000/svg" viewBox="0 0 1200 400" fill="none">
  <defs>
    <linearGradient id="bannerBg" x1="0" y1="0" x2="1200" y2="400" gradientUnits="userSpaceOnUse">
      <stop offset="0%" stop-color="#0a0a1a"/>
      <stop offset="50%" stop-color="#12121f"/>
      <stop offset="100%" stop-color="#0a0a1a"/>
    </linearGradient>
    <linearGradient id="accentLine" x1="0" y1="0" x2="1200" y2="0" gradientUnits="userSpaceOnUse">
      <stop offset="0%" stop-color="#6c63ff" stop-opacity="0"/>
      <stop offset="30%" stop-color="#6c63ff"/>
      <stop offset="70%" stop-color="#fbbf24"/>
      <stop offset="100%" stop-color="#fbbf24" stop-opacity="0"/>
    </linearGradient>
    <linearGradient id="shieldG" x1="80" y1="60" x2="200" y2="340" gradientUnits="userSpaceOnUse">
      <stop offset="0%" stop-color="#6c63ff"/>
      <stop offset="100%" stop-color="#4840c4"/>
    </linearGradient>
    <linearGradient id="crownG" x1="100" y1="90" x2="180" y2="220" gradientUnits="userSpaceOnUse">
      <stop offset="0%" stop-color="#fbbf24"/>
      <stop offset="100%" stop-color="#f59e0b"/>
    </linearGradient>
    <linearGradient id="lockG" x1="125" y1="245" x2="155" y2="300" gradientUnits="userSpaceOnUse">
      <stop offset="0%" stop-color="#34d399"/>
      <stop offset="100%" stop-color="#10b981"/>
    </linearGradient>
    <filter id="glowB">
      <feGaussianBlur stdDeviation="6" result="blur"/>
      <feComposite in="SourceGraphic" in2="blur" operator="over"/>
    </filter>
    <filter id="crownGlowB">
      <feGaussianBlur stdDeviation="4" result="blur"/>
      <feComposite in="SourceGraphic" in2="blur" operator="over"/>
    </filter>
    <radialGradient id="orb1" cx="50%" cy="50%">
      <stop offset="0%" stop-color="#6c63ff" stop-opacity="0.08"/>
      <stop offset="100%" stop-color="#6c63ff" stop-opacity="0"/>
    </radialGradient>
    <radialGradient id="orb2" cx="50%" cy="50%">
      <stop offset="0%" stop-color="#fbbf24" stop-opacity="0.05"/>
      <stop offset="100%" stop-color="#fbbf24" stop-opacity="0"/>
    </radialGradient>
  </defs>

  <!-- Background -->
  <rect width="1200" height="400" fill="url(#bannerBg)"/>

  <!-- Subtle grid pattern -->
  <pattern id="grid" width="40" height="40" patternUnits="userSpaceOnUse">
    <path d="M 40 0 L 0 0 0 40" fill="none" stroke="#ffffff" stroke-width="0.3" opacity="0.04"/>
  </pattern>
  <rect width="1200" height="400" fill="url(#grid)"/>

  <!-- Ambient orbs -->
  <circle cx="200" cy="200" r="200" fill="url(#orb1)"/>
  <circle cx="900" cy="250" r="250" fill="url(#orb2)"/>

  <!-- Accent line top -->
  <line x1="0" y1="2" x2="1200" y2="2" stroke="url(#accentLine)" stroke-width="3"/>

  <!-- Logo - Crown + Shield + Lock (positioned left) -->
  <g transform="translate(100, 60) scale(0.7)">
    <!-- Shield outline -->
    <path d="M140 20 L260 70 L260 190 Q260 270 140 320 Q20 270 20 190 L20 70 Z"
          fill="url(#shieldG)" opacity="0.12" filter="url(#glowB)"/>
    <path d="M140 32 L250 78 L250 186 Q250 260 140 308 Q30 260 30 186 L30 78 Z"
          fill="none" stroke="url(#shieldG)" stroke-width="2.5" opacity="0.8"/>

    <!-- Crown -->
    <rect x="94" y="170" width="92" height="16" rx="2" fill="url(#crownG)" opacity="0.9" filter="url(#crownGlowB)"/>
    <path d="M94 170 L94 130 L117 152 L140 110 L163 152 L186 130 L186 170 Z"
          fill="url(#crownG)" opacity="0.9" filter="url(#crownGlowB)"/>
    <!-- Crown jewels -->
    <circle cx="94" cy="127" r="5" fill="#6c63ff" opacity="0.9"/>
    <circle cx="140" cy="107" r="5.5" fill="#6c63ff" opacity="0.9"/>
    <circle cx="186" cy="127" r="5" fill="#6c63ff" opacity="0.9"/>

    <!-- Lock -->
    <rect x="124" y="220" width="32" height="26" rx="3" fill="url(#lockG)" opacity="0.9"/>
    <path d="M131 220 L131 212 Q131 201 140 201 Q149 201 149 212 L149 220"
          fill="none" stroke="url(#lockG)" stroke-width="3" stroke-linecap="round" opacity="0.9"/>
    <circle cx="140" cy="231" r="3" fill="#1a1a2e"/>
    <line x1="140" y1="233" x2="140" y2="238" stroke="#1a1a2e" stroke-width="2" stroke-linecap="round"/>
  </g>

  <!-- Title text -->
  <text x="340" y="170" font-family="-apple-system, BlinkMacSystemFont, 'Segoe UI', Roboto, sans-serif" font-size="72" font-weight="800" letter-spacing="-2">
    <tspan fill="#e4e4ef">Sovereign </tspan><tspan fill="#6c63ff">AI</tspan>
  </text>

  <!-- Tagline -->
  <text x="342" y="215" font-family="-apple-system, BlinkMacSystemFont, 'Segoe UI', Roboto, sans-serif" font-size="22" fill="#8888a0" letter-spacing="0.5">
    Private AI Council for Privacy Sensitive Minds
  </text>

  <!-- Tech badges row -->
  <g transform="translate(342, 250)">
    <rect x="0" y="0" width="72" height="28" rx="6" fill="#1e1e2e" stroke="#2a2a4a" stroke-width="1"/>
    <text x="36" y="18" font-family="monospace" font-size="11" fill="#6c63ff" text-anchor="middle">Tauri 2</text>

    <rect x="84" y="0" width="80" height="28" rx="6" fill="#1e1e2e" stroke="#2a2a4a" stroke-width="1"/>
    <text x="124" y="18" font-family="monospace" font-size="11" fill="#34d399" text-anchor="middle">React 19</text>

    <rect x="176" y="0" width="56" height="28" rx="6" fill="#1e1e2e" stroke="#2a2a4a" stroke-width="1"/>
    <text x="204" y="18" font-family="monospace" font-size="11" fill="#f59e0b" text-anchor="middle">Rust</text>

    <rect x="244" y="0" width="76" height="28" rx="6" fill="#1e1e2e" stroke="#2a2a4a" stroke-width="1"/>
    <text x="282" y="18" font-family="monospace" font-size="11" fill="#60a5fa" text-anchor="middle">llama.cpp</text>

    <rect x="332" y="0" width="100" height="28" rx="6" fill="#1e1e2e" stroke="#2a2a4a" stroke-width="1"/>
    <text x="382" y="18" font-family="monospace" font-size="11" fill="#f472b6" text-anchor="middle">TypeScript</text>
  </g>

  <!-- Bottom accent line -->
  <line x1="0" y1="398" x2="1200" y2="398" stroke="url(#accentLine)" stroke-width="3"/>
</svg>
